# xmcd
#
# Track frame offsets:
#	150
#	13884
#	30018
#	44128
#	55763
#	77148
#	86462
#	98695
#	107630
#	121360
#	137494
#	151600
#	163233
#	185013
#	194716
#	207346
#
# Disc length: 2881 seconds
#
# Revision: 2
# Processed by: cddbd v1.5.2PL0 Copyright (c) Steve Scherf et al.
# Submitted via: audiograbber 1.83.01
#
DISCID=d10b3f10
DTITLE=Variouos - A16 
DYEAR=2006
DGENRE=karaoke
TTITLE0=Waylon Jennings - Drinkin and Dreamin w vocal
TTITLE1=Alabama - Give Me One more shot w vocal
TTITLE2=Tracy byrd - 10 rounds with jose cuervo w vocal
TTITLE3=brooks and dunn - beer thirty w vocal
TTITLE4=Merle Haggard - just stay here and drink w vocal
TTITLE5=roger miller - chug a lug w vocal
TTITLE6=travis tritt and marty stuart - the wiskey aint workin w vocal
TTITLE7=loretta lynn - dont come home a drinkin w vocal
TTITLE8=waylon jennings - drinkin and dreamin
TTITLE9=alabama - give me one more shot
TTITLE10=tracy byrd - 10 rounds with jose cuervo
TTITLE11=brooks and dunn - beer thirty
TTITLE12=merle haggard - just stay here and drink
TTITLE13=roger miller - chug a lug
TTITLE14=travis tritt and marty stuart - the wiskey aint workin
TTITLE15=loretta lynn - dont come home a drinkin
EXTD=Resampled by Sigiere\n
EXTT0=
EXTT1=
EXTT2=
EXTT3=
EXTT4=
EXTT5=
EXTT6=
EXTT7=
EXTT8=
EXTT9=
EXTT10=
EXTT11=
EXTT12=
EXTT13=
EXTT14=
EXTT15=
PLAYORDER=
